<?xml version="1.0" encoding="UTF-8"?><svg xmlns="http://www.w3.org/2000/svg" viewBox="0 0 91.71 87.68"><defs><style>.d{fill:#050505;}</style></defs><g id="a"/><g id="b"><g id="c"><g><path class="d" d="M5.63,51.27c0-4.98,0-9.96,0-14.95,0-.52-.02-.53-.54-.53-1.29,0-2.58,0-3.87,0-.71,0-1.22-.47-1.23-1.13,0-.67,.51-1.16,1.23-1.16,1.81,0,3.63,0,5.44,0,.58,0,.96,.27,1.19,.8,2.77,6.53,5.54,13.05,8.31,19.58,.75,1.77,1.5,3.53,2.25,5.3,.18,.42,.28,.43,.57,.07,2.84-3.52,5.68-7.04,8.51-10.56,.35-.43,.77-.64,1.32-.49,.43,.11,.75,.49,.8,.94,.02,.15,.02,.31,.02,.46,0,6.01,0,12.02,0,18.03,0,.14,0,.28-.01,.43-.06,.6-.55,1.02-1.17,1-.59-.01-1.06-.46-1.1-1.04,0-.1,0-.2,0-.29,0-4.36,0-8.72,0-13.08,0-.11,0-.22,0-.33,0-.3-.1-.54-.4-.65-.31-.11-.52,.03-.71,.26-2.27,2.82-4.55,5.65-6.83,8.47-.15,.18-.31,.38-.51,.5-.61,.38-1.36,.1-1.66-.61-.85-2.01-1.71-4.02-2.56-6.02-2.1-4.95-4.2-9.9-6.3-14.85-.03-.08-.06-.17-.12-.23-.04-.05-.14-.08-.2-.07-.06,.01-.13,.09-.14,.15-.02,.1-.01,.22-.01,.33,0,8.66,0,17.33,0,25.99,0,.1,0,.2,0,.29-.02,.72-.48,1.18-1.2,1.19-1.84,0-3.67,0-5.51,0-.72,0-1.21-.47-1.21-1.14,0-.65,.51-1.14,1.22-1.14,1.29,0,2.58,0,3.87,0q.54,0,.54-.55c0-4.98,0-9.96,0-14.95Z"/><path class="d" d="M53.38,48.73c-7.68-.07-14.18-5.51-15.53-13.07-.46-2.57-.27-5.11,.54-7.6,.23-.72,.84-1.05,1.5-.84,.63,.21,.9,.83,.69,1.55-1.51,5.16-.45,9.73,3.26,13.61,2.08,2.19,4.7,3.45,7.7,3.86,7.88,1.07,14.27-4.62,15.35-11.55,.69-4.46-.63-8.29-4.01-11.3-4.57-4.08-9.19-8.11-13.8-12.14-2.64-2.31-2.86-6.57-.45-9.15,2.5-2.66,6.54-2.81,9.2-.34,.55,.51,.61,1.22,.15,1.71-.45,.49-1.16,.5-1.66,.02-.86-.81-1.87-1.22-3.05-1.2-1.63,.02-3.18,1.13-3.77,2.7-.6,1.6-.15,3.43,1.09,4.52,4.6,4.04,9.22,8.07,13.81,12.14,2.96,2.62,4.62,5.93,4.91,9.89,.59,8-5.13,15.4-13.03,16.85-.95,.17-1.92,.23-2.89,.34Z"/><path class="d" d="M39.69,10.72c-.06,.2-.1,.4-.18,.59-3.4,7.73-6.8,15.46-10.2,23.19-.76,1.74-1.53,3.48-2.29,5.21-.27,.61-.77,.88-1.36,.74-.45-.1-.68-.42-.86-.83-1.71-3.91-3.43-7.81-5.15-11.71-2.45-5.57-4.9-11.14-7.35-16.72-.36-.82,.03-1.58,.87-1.7,.51-.08,.98,.21,1.21,.75,.8,1.82,1.6,3.63,2.4,5.45,2.82,6.4,5.63,12.8,8.45,19.2,.14,.32,.34,.54,.71,.53,.37,0,.56-.22,.7-.54,3.56-8.09,7.11-16.18,10.67-24.26,.07-.15,.13-.3,.2-.45,.25-.48,.77-.71,1.31-.58,.5,.12,.85,.58,.88,1.12Z"/><path class="d" d="M73.66,54.94c0,4.29,0,8.59,0,12.88,0,.83-.59,1.37-1.37,1.21-.22-.04-.45-.18-.62-.33-3.27-3.04-6.54-6.09-9.8-9.13-1.12-1.04-2.24-2.09-3.36-3.12-.09-.09-.23-.12-.35-.18-.05,.14-.14,.27-.14,.41,0,3.62,0,7.23,0,10.85,0,.13,0,.26,0,.39,0,.64-.45,1.11-1.06,1.14-.64,.03-1.14-.39-1.21-1.03,0-.08,0-.15,0-.23,0-4.77,0-9.55,0-14.32,0-.8,.52-1.35,1.25-1.25,.28,.04,.58,.2,.79,.4,1.81,1.66,3.6,3.35,5.4,5.02,2.55,2.38,5.09,4.75,7.64,7.13,.06,.06,.12,.13,.19,.18,.19,.14,.33,.08,.36-.16,.02-.12,0-.24,0-.36,0-7.41,0-14.82,0-22.22,0-.22,0-.44,.06-.65,.15-.52,.66-.83,1.22-.77,.54,.06,.95,.48,1,1.04,0,.11,0,.22,0,.33,0,4.26,0,8.52,0,12.78Z"/><path class="d" d="M83.74,51.26c0-4.97,0-9.94,0-14.92q0-.55-.57-.55c-1.28,0-2.56,0-3.84,0-.7,0-1.19-.46-1.19-1.11,0-.69,.46-1.17,1.17-1.17,3.73,0,7.45,0,11.18,0,.71,0,1.21,.49,1.21,1.14,0,.66-.51,1.14-1.21,1.14-1.34,0-2.69,0-4.03,0-.39,0-.43,.04-.43,.43,0,9.92,0,19.84,0,29.76,0,.57,.22,.78,.8,.78,1.22,0,2.45,0,3.67,0,.5,0,.89,.21,1.1,.68,.2,.44,.13,.86-.18,1.22-.24,.29-.56,.38-.93,.38-1.64,0-3.28,0-4.92,0-2.09,0-4.17,0-6.26,0-.92,0-1.47-.92-1.02-1.7,.24-.42,.63-.58,1.1-.58,1.3,0,2.6,0,3.9,0,.45,0,.46-.01,.46-.46,0-5.02,0-10.03,0-15.05Z"/><path class="d" d="M49.55,69.1c-.53-.04-.88-.28-1.1-.74-.48-1.02-.97-2.03-1.44-3.05-.12-.26-.26-.34-.54-.34-1.99,.01-3.98,0-5.96,0-.78,0-1.33,.33-1.67,1.03-.39,.79-.79,1.58-1.19,2.37-.27,.53-.75,.77-1.3,.66-.72-.14-1.11-.94-.77-1.64,.47-.96,.96-1.91,1.44-2.87,1.7-3.39,3.41-6.78,5.11-10.18,.24-.47,.56-.8,1.13-.79,.57,.01,.88,.34,1.11,.82,2.04,4.3,4.08,8.59,6.12,12.88,.31,.65,.17,1.31-.36,1.62-.17,.1-.38,.14-.57,.21Zm-6.45-6.41c.72,0,1.44,0,2.16,0,.39,0,.45-.1,.28-.45-.7-1.47-1.39-2.93-2.1-4.4-.05-.1-.17-.17-.26-.26-.08,.08-.19,.15-.23,.25-.75,1.48-1.5,2.96-2.24,4.44-.16,.31-.09,.42,.26,.42,.71,0,1.42,0,2.13,0Z"/><path class="d" d="M29.73,80.47c-.82-.77-1.23-1.69-1.01-2.8,.13-.67,.45-1.25,1.01-1.67,1.14-.87,2.8-.7,3.76,.39,.59,.67,.8,1.46,.66,2.34-.14,.89-.69,1.51-1.44,2.02,.57,.66,1.1,1.31,1.66,1.93,.16,.18,.35,.13,.52-.02,.44-.39,.89-.77,1.34-1.16,.52-.45,1.17-.45,1.58,0,.42,.47,.33,1.12-.2,1.58-.44,.38-.88,.76-1.31,1.14-.28,.24-.29,.37-.05,.66,.19,.24,.4,.46,.59,.7,.37,.47,.33,1.1-.1,1.47-.43,.38-1.05,.35-1.47-.09-.22-.24-.43-.49-.64-.74-.18-.22-.38-.23-.59-.04-.21,.19-.42,.38-.64,.56-2.04,1.71-5.23,.67-5.74-1.91-.28-1.44,.11-2.72,1.27-3.7,.26-.22,.52-.43,.81-.67Zm1.36,5.07c.17-.04,.37-.04,.5-.13,.41-.29,.8-.6,1.17-.94,.07-.07,.04-.35-.04-.45-.34-.45-.72-.88-1.1-1.3-.31-.34-.75-.39-1.13-.14-.14,.09-.26,.2-.38,.31-.49,.42-.65,1.06-.42,1.66,.21,.55,.82,.97,1.4,1Zm.27-6.39c.18-.15,.34-.26,.49-.39,.3-.27,.33-.67,.08-.96-.23-.27-.67-.33-.91-.12-.3,.25-.34,.68-.09,1,.13,.16,.27,.31,.43,.48Z"/><path class="d" d="M50.55,87.68c-3.67,0-6.31-2.49-6.55-5.75-.23-3.18,2.08-6.06,5.26-6.5,1.98-.27,3.72,.28,5.17,1.67,.51,.49,.54,1.16,.09,1.63-.44,.46-1.12,.45-1.64-.03-2.28-2.11-5.87-1.05-6.57,1.94-.39,1.67,.33,3.36,1.8,4.26,1.43,.87,3.29,.72,4.58-.37,.25-.21,.54-.43,.85-.51,.48-.13,.96,.15,1.17,.58,.22,.44,.14,.93-.22,1.29-1.21,1.2-2.67,1.77-3.95,1.79Z"/><path class="d" d="M61.58,84.07c-2.43,0-4.35-1.92-4.35-4.34,0-2.43,1.95-4.38,4.36-4.38,2.4,0,4.35,1.97,4.35,4.37,0,2.41-1.94,4.34-4.36,4.35Zm-.03-2.09c1.23,.02,2.28-.99,2.29-2.22,.02-1.26-1.01-2.31-2.26-2.32-1.2,0-2.25,1-2.27,2.17-.02,1.32,.95,2.34,2.24,2.36Z"/><path class="d" d="M61.43,87.68c-1,0-2.01,0-3.01,0-.72,0-1.19-.44-1.19-1.1,0-.66,.47-1.12,1.18-1.12,2.03,0,4.06,0,6.09,0,.7,0,1.19,.46,1.19,1.11,0,.65-.48,1.11-1.19,1.11-1.03,0-2.05,0-3.08,0Z"/></g></g></g></svg>